<svg width="170" height="168" viewBox="50 15 319 168" fill="none" xmlns="http://www.w3.org/2000/svg">
            <path
              d="M223.277 89.1006L261.881 48H270.026L227.349 93.437L251.579 119.239H243.434L223.276 97.7729L203.114 119.239H194.969L219.204 93.4366L196.651 69.4198H204.795L223.277 89.1006Z"
              fill="white"
            />
            <path
              d="M125.473 107.896V88.3902H116.688V83.0643H125.473V72.4815H131.629V83.0643H148.367V88.3902H131.629V107.342C131.629 112.461 134.672 114.052 140.136 114.052C143.18 114.052 145.946 113.36 148.575 112.392L149.681 117.717C146.915 118.824 142.834 119.654 139.168 119.654C131.559 119.654 125.473 116.611 125.473 107.896Z"
              fill="white"
            />
            <path
              fill-rule="evenodd"
              clip-rule="evenodd"
              d="M74.8383 109.141C74.8383 116.265 81.2709 120 89.3636 120C96.2112 120 102.367 117.579 105.618 113.429L105.687 113.775C106.31 117.994 110.045 120.553 116.962 119.239V114.259C112.95 115.158 111.152 114.397 111.152 111.7V95.3762C111.152 87.0068 104.926 82.3726 94.482 82.3726C86.0435 82.3726 78.5042 86.3152 76.2216 92.4019L81.4093 94.7537C82.9309 90.6036 88.1877 87.6985 94.3437 87.6985C101.399 87.6985 105.134 90.7419 105.134 95.307V96.2062L89.1561 98.0046C80.6484 98.9729 74.8383 102.431 74.8383 109.141ZM105.134 101.186V104.783C105.134 111.561 96.9721 114.882 89.8478 114.882C84.4526 114.882 80.9251 112.807 80.9251 109.071C80.9251 104.921 84.6602 103.538 90.0553 102.915L105.134 101.186Z"
              fill="white"
            />
            <path
              d="M72.278 89.4969V83.2718C71.3096 82.9951 69.8571 82.7876 68.1971 82.7876C61.4878 82.7876 56.9227 85.9001 54.2251 90.6727V83.0643H48V119.239H54.2251V102.224C54.2251 93.7853 59.7586 88.9435 68.0587 88.9435C69.7879 88.9435 70.7563 89.151 72.278 89.4969Z"
              fill="white"
            />
            <path
              fill-rule="evenodd"
              clip-rule="evenodd"
              d="M186.724 105.959C185.064 111.008 180.083 114.605 173.097 114.605C165.143 114.605 159.195 109.971 158.434 102.777H192.326V100.356C192.326 90.2577 184.925 82.3726 173.097 82.3726C160.924 82.3726 152.555 90.4652 152.555 101.186C152.555 112.253 161.131 120 173.097 120C182.85 120 189.629 114.674 191.773 108.587L186.724 105.959ZM158.711 98.0046C160.094 91.5028 165.835 87.6293 172.821 87.6293C180.913 87.6293 185.824 93.0936 186.239 98.0046H158.711Z"
              fill="white"
            />
</svg>